<?xml version="1.0" encoding="utf-8"?><svg viewBox="0 0 24 24" xmlns="http://www.w3.org/2000/svg" xmlns:xlink="http://www.w3.org/1999/xlink"><style>:root>svg{display:none}:root>svg:target{display:block}</style><svg fill="none" viewBox="0 0 24 24" id="cafe" xmlns="http://www.w3.org/2000/svg"><path d="M5.5 3.5h11V13a3.5 3.5 0 01-3.5 3.5H9A3.5 3.5 0 015.5 13V3.5zM3 19.5h16M16.5 9.5v-6H19A1.5 1.5 0 0120.5 5v3A1.5 1.5 0 0119 9.5h-2.5z" stroke="inherit"/></svg><svg fill="none" viewBox="0 0 24 24" id="food" xmlns="http://www.w3.org/2000/svg"><path d="M12.113 9.327a.605.605 0 00.774 0c1.628-1.364 3.288-1.546 4.503-1.016 1.214.53 2.11 1.824 2.11 3.689 0 1.434-.361 3.349-1.19 4.888-.825 1.532-2.061 2.612-3.81 2.612-.778 0-1.342-.515-1.546-.738l-.37.337.37-.337a.617.617 0 00-.908 0c-.204.223-.768.738-1.546.738-1.749 0-2.985-1.08-3.81-2.612C5.862 15.349 5.5 13.434 5.5 12c0-1.865.896-3.16 2.11-3.69 1.215-.53 2.875-.347 4.503 1.017l.32-.383-.32.383zM12.5 2v7.5M12.232 4.635c.11.102.201.19.268.256v.421a40.268 40.268 0 01-1.963.151 22.15 22.15 0 01-1.947.025c-.626-.025-1.123-.09-1.421-.198-.615-.22-1.038-.665-1.315-1.082a3.622 3.622 0 01-.314-.58l.012-.02c.064-.114.174-.273.35-.434C6.241 2.86 6.868 2.5 8 2.5c1.089 0 2.232.594 3.146 1.25.448.32.823.643 1.086.885zM5.477 3.462s0 0 0 0h0z" stroke="inherit"/></svg><svg fill="none" viewBox="0 0 24 24" id="hit" xmlns="http://www.w3.org/2000/svg"><circle cx="12" cy="12" r="9" stroke="#BC38BF"/><path d="M13.096 9.991l.112.346h2.987a.3.3 0 01.177.543l-2.123 1.542-.294.213.112.346.811 2.495a.3.3 0 01-.462.335l-2.122-1.542-.294-.213-.294.213-2.122 1.542a.3.3 0 01-.462-.335l.81-2.495.113-.346-.294-.213-2.123-1.542a.3.3 0 01.177-.543h2.987l.112-.346.81-2.495a.3.3 0 01.571 0l.811 2.495z" stroke="#BC38BF"/></svg><svg fill="none" viewBox="0 0 24 24" id="non-food" xmlns="http://www.w3.org/2000/svg"><path d="M4.5 8.5h14V19a.5.5 0 01-.5.5H5a.5.5 0 01-.5-.5V8.5zM11.5 8v4M11.5 16v4" stroke="inherit"/><path d="M8.5 4.5l-4 4M14.5 4.5l4 4" stroke="inherit" stroke-linecap="round"/></svg><svg fill="none" viewBox="0 0 24 24" id="sale" xmlns="http://www.w3.org/2000/svg"><circle cx="12" cy="12" r="9" stroke="#F3532D"/><circle cx="9.5" cy="9.5" r="1" stroke="#F3532D"/><circle cx="14.5" cy="14.5" r="1" stroke="#F3532D"/><path d="M9.5 15.5l5-7" stroke="#F3532D" stroke-linecap="round"/></svg></svg>