<?xml version="1.0" encoding="utf-8"?><svg viewBox="0 0 48 48" xmlns="http://www.w3.org/2000/svg" xmlns:xlink="http://www.w3.org/1999/xlink"><style>:root>svg{display:none}:root>svg:target{display:block}</style><svg fill="none" viewBox="0 0 16 16" id="arrow-bottom" xmlns="http://www.w3.org/2000/svg"><path d="M8.286 10.866a.37.37 0 01-.572 0L4.12 6.783C3.865 6.494 4.045 6 4.405 6h7.19c.36 0 .54.494.286.783l-3.595 4.083z" fill="#8C92A2"/></svg><svg fill="none" viewBox="0 0 20 20" id="block" xmlns="http://www.w3.org/2000/svg"><path d="M10 2a7 7 0 100 14 7 7 0 000-14z" fill="#F3532D"/><path d="M14 9H6" stroke="#fff" stroke-width="2"/></svg><svg fill="inherit" viewBox="0 0 32 32" id="cancel" xmlns="http://www.w3.org/2000/svg"><path d="M9 9l14 14M23 9L9 23" stroke="inherit"/></svg><svg fill="inherit" viewBox="0 0 24 24" id="cart" xmlns="http://www.w3.org/2000/svg"><path d="M2 2v2h2l3.6 7.59-1.35 2.45c-.16.28-.25.61-.25.96 0 1.1.9 2 2 2h12l-1-2H8.42c-.14 0-.25-.11-.25-.25l.03-.12.9-1.63h7.45c.75 0 1.41-.41 1.75-1.03l3.58-6.49A1.004 1.004 0 0021 4H6.21l-.4-.85A2 2 0 004 2H2z"/><circle cx="8.5" cy="20.5" r="1.5"/><circle cx="17.5" cy="20.5" r="1.5"/></svg><svg fill="inherit" viewBox="0 0 40 40" id="cart_add" xmlns="http://www.w3.org/2000/svg"><path d="M0 3a3 3 0 013-3h34a3 3 0 013 3v34a3 3 0 01-3 3H3a3 3 0 01-3-3V3z"/><path d="M17.1 21h7.45c.75 0 1.41-.41 1.75-1.03l3.86-7.01.54-.96h-2.28l-3.87 7h-7.02l-3.718-7.856A2 2 0 0012.004 10H10v2h2l3.6 7.59-1.35 2.44C13.52 23.37 14.48 25 16 25h12l-1-2H16l1.1-2z" fill="#fff"/><circle cx="16.5" cy="28.5" r="1.5" fill="#fff"/><circle cx="25.5" cy="28.5" r="1.5" fill="#fff"/><path d="M21 10v5" stroke="#fff" stroke-width="2"/><path d="M18 13h6v1l-2.5 3h-1L18 14v-1z" fill="#fff"/></svg><svg fill="none" viewBox="0 0 48 48" id="close" xmlns="http://www.w3.org/2000/svg"><path d="M16 16l16 16M32 16L16 32" stroke="#fff" stroke-width="2" stroke-linecap="round"/></svg><svg fill="none" viewBox="0 0 20 20" id="done" xmlns="http://www.w3.org/2000/svg"><path d="M10 2a7 7 0 100 14 7 7 0 000-14z" fill="#0FBD1B"/><path d="M7 9l2 2 4-4" stroke="#fff" stroke-width="2"/></svg><svg fill="none" viewBox="0 0 32 32" id="download" xmlns="http://www.w3.org/2000/svg"><path d="M18 6h-8c-1.1 0-1.99.9-1.99 2L8 24c0 1.1.89 2 1.99 2H22c1.1 0 2-.9 2-2V12l-6-6zm-8 18V8h7l5 5v11H10z" fill="#3A67DB"/><path d="M16 16v5" stroke="#3A67DB" stroke-width="2"/><path d="M13 18h6v1l-2.5 3h-1L13 19v-1z" fill="#3A67DB"/><path d="M17 8v5h5" stroke="#3A67DB" stroke-width="2"/></svg><svg fill="inherit" viewBox="0 0 24 24" id="email" xmlns="http://www.w3.org/2000/svg"><path d="M6 6a2 2 0 00-2 2v9a2 2 0 002 2h12a2 2 0 002-2V8a2 2 0 00-2-2H6zm12 2l-5.575 4.883a.831.831 0 01-.85 0L6 8h12z"/></svg><svg fill="none" viewBox="0 0 48 48" id="import" xmlns="http://www.w3.org/2000/svg"><path d="M26 14h-8c-1.1 0-1.99.9-1.99 2L16 32c0 1.1.89 2 1.99 2H30c1.1 0 2-.9 2-2V20l-6-6zm-8 18V16h7l5 5v11H18z" fill="#fff"/><path d="M24 30v-5" stroke="#fff" stroke-width="2"/><path d="M27 28h-6v-1l2.5-3h1l2.5 3v1z" fill="#fff"/><path d="M26 20v-4.259a.1.1 0 01.17-.07l4.16 4.158a.1.1 0 01-.071.171H26z" fill="#fff" stroke="#fff" stroke-width="2"/></svg><svg fill="none" viewBox="0 0 24 24" id="info" xmlns="http://www.w3.org/2000/svg"><path d="M12 3c-4.968 0-9 4.032-9 9s4.032 9 9 9 9-4.032 9-9-4.032-9-9-9zm1 14h-1.9l-.1-6h2v6zm0-8h-2V7h2v2z" fill="#4D79E7"/></svg><svg fill="none" viewBox="0 0 48 48" id="magnifier" xmlns="http://www.w3.org/2000/svg"><circle cx="21.5" cy="21.5" r="6.5" stroke="#fff" stroke-width="2"/><path d="M26 26l5 5" stroke="#fff" stroke-width="2"/><path d="M29 29l3 3" stroke="#fff" stroke-width="4" stroke-linecap="round"/></svg><svg fill="inherit" viewBox="0 0 14 14" id="phone" xmlns="http://www.w3.org/2000/svg"><path d="M13.992 11.049a.678.678 0 00-.357-.488l-2.867-1.69-.023-.013a.851.851 0 00-.387-.09.89.89 0 00-.63.25l-.846.847a.495.495 0 01-.19.086c-.01 0-.984-.07-2.779-1.866-1.791-1.791-1.867-2.77-1.868-2.77a.452.452 0 01.085-.204l.722-.721a.921.921 0 00.18-1.005l-1.594-3A.659.659 0 002.848 0a.68.68 0 00-.48.206L.4 2.17a1.507 1.507 0 00-.386.78c-.017.126-.366 3.14 3.764 7.271 3.506 3.507 6.24 3.78 6.995 3.78.092.001.184-.004.275-.014.264-.036.591-.198.778-.386l1.966-1.965a.677.677 0 00.2-.586z"/></svg><svg fill="none" viewBox="0 0 24 24" id="receipt" xmlns="http://www.w3.org/2000/svg"><path d="M4.5 21V5.5a1 1 0 011-1h13a1 1 0 011 1V21M13.5 19v2M16.5 19v2M10.5 19v2M7.5 19v2M7 11.5h10M7 8.5h10M7 14.5h6" stroke="#8C92A2"/></svg><svg fill="none" viewBox="0 0 24 24" id="repeat" xmlns="http://www.w3.org/2000/svg"><path d="M16.5 4.96l3.628 2.54-3.628 2.54V4.96zM7.5 14.96L3.872 17.5 7.5 20.04v-5.08z" stroke="#fff"/><path fill-rule="evenodd" clip-rule="evenodd" d="M7 7h10v1H7a1 1 0 00-1 1v3.75l-1 .75V9a2 2 0 012-2zm0 11h10a2 2 0 002-2v-4.5l-1 .75V16a1 1 0 01-1 1H7v1z" fill="#fff"/></svg><svg fill="none" viewBox="0 0 24 24" id="repeat-gray" xmlns="http://www.w3.org/2000/svg"><path d="M16.5 4.96l3.628 2.54-3.628 2.54V4.96zM7.5 14.96L3.872 17.5 7.5 20.04v-5.08z" stroke="#8C92A2"/><path fill-rule="evenodd" clip-rule="evenodd" d="M7 7h10v1H7a1 1 0 00-1 1v3.75l-1 .75V9a2 2 0 012-2zm0 11h10a2 2 0 002-2v-4.5l-1 .75V16a1 1 0 01-1 1H7v1z" fill="#8C92A2"/></svg><svg fill="inherit" viewBox="0 0 32 32" id="search" xmlns="http://www.w3.org/2000/svg"><circle cx="14.5" cy="14.5" r="5" stroke="inherit"/><path d="M18 18l4 4" stroke="inherit"/></svg><svg fill="inherit" viewBox="0 0 24 24" id="telegram" xmlns="http://www.w3.org/2000/svg"><path d="M12 21a9 9 0 01-9-9 9 9 0 019-9 9 9 0 019 9 9 9 0 01-9 9zm-3.153-7.83l.012-.006.783 2.583c.1.28.24.33.408.307.169-.023.258-.114.369-.22l1.069-1.033 2.295 1.699c.42.231.72.112.825-.389l1.491-7.04c.165-.655-.123-.918-.631-.709l-8.76 3.384c-.598.24-.594.574-.108.723l2.247.701z"/></svg><svg fill="none" viewBox="0 0 32 32" id="triangle-next" xmlns="http://www.w3.org/2000/svg"><path d="M13.5 10l6 6-6 6" stroke="inherit" stroke-width="2"/></svg><svg fill="none" viewBox="0 0 32 32" id="triangle-prev" xmlns="http://www.w3.org/2000/svg"><path d="M18.5 10l-6 6 6 6" stroke="inherit" stroke-width="2"/></svg><svg fill="none" viewBox="0 0 24 24" id="upload" xmlns="http://www.w3.org/2000/svg"><path d="M9.96 16.5l2.54-3.628 2.54 3.628H9.96zM12.5 17v4M15.5 4.5l5 5" stroke="inherit"/><path d="M4.5 5.5H5h-.5zm11 3H15h.5zm0-4V4a.5.5 0 01.5.5h-.5zm-10 0V4v.5zm15 5V9a.5.5 0 01.5.5h-.5zm-4 0V9v.5zM5 5.5V21H4V5.5h1zm10 3v-4h1v4h-1zm.5-3.5h-10V4h10v1zM20 21V9.5h1V21h-1zm.5-11h-4V9h4v1zM4 5.5A1.5 1.5 0 015.5 4v1a.5.5 0 00-.5.5H4zm12 3a.5.5 0 00.5.5v1A1.5 1.5 0 0115 8.5h1z" fill="inherit"/></svg><svg fill="inherit" viewBox="0 0 24 24" id="user" xmlns="http://www.w3.org/2000/svg"><path fill-rule="evenodd" clip-rule="evenodd" d="M5 2h14c1.1 0 2 .9 2 2v14c0 1.1-.9 2-2 2h-4l-2.3 2.29a.996.996 0 01-1.41 0L9 20H5c-1.1 0-2-.9-2-2V4a2 2 0 012-2zm1 14.1v.9h12v-.9c0-2-4-3.1-6-3.1s-6 1.1-6 3.1zm6-5.1a3 3 0 100-6 3 3 0 000 6z"/></svg><svg fill="none" viewBox="0 0 20 20" id="waiting" xmlns="http://www.w3.org/2000/svg"><path d="M10 2a7 7 0 100 14 7 7 0 000-14z" fill="#DB9B00"/><path d="M10 5v4.5l2 2.5" stroke="#fff" stroke-width="2"/></svg><svg fill="none" viewBox="0 0 24 24" id="warning" xmlns="http://www.w3.org/2000/svg"><path d="M12 21c4.968 0 9-4.032 9-9s-4.032-9-9-9-9 4.032-9 9 4.032 9 9 9zM11 7h2v6h-2V7zm0 8h2v2h-2v-2z" fill="#F3532D"/></svg><svg fill="inherit" viewBox="0 0 24 24" id="whatsapp" xmlns="http://www.w3.org/2000/svg"><path d="M3.004 21l1.216-4.471A8.959 8.959 0 013 12a9 9 0 019-9 9 9 0 019 9 9 9 0 01-13.527 7.78L3.003 21zM8.752 7.777a.865.865 0 00-.334.09 1.164 1.164 0 00-.265.205c-.108.102-.169.19-.234.276a2.456 2.456 0 00-.509 1.51c.002.441.117.87.297 1.272.368.811.974 1.671 1.774 2.467.193.192.38.385.583.564a8.504 8.504 0 003.456 1.841l.512.079c.167.009.333-.004.5-.012a1.79 1.79 0 00.75-.208 4.34 4.34 0 00.345-.198s.039-.025.112-.081c.122-.09.197-.154.297-.26.075-.077.14-.167.19-.271.07-.147.14-.427.169-.66.021-.178.015-.275.012-.335-.003-.097-.083-.197-.17-.239l-.524-.235s-.783-.34-1.261-.559a.447.447 0 00-.16-.037.435.435 0 00-.34.115v-.002c-.004 0-.065.051-.715.84a.314.314 0 01-.332.117 1.274 1.274 0 01-.171-.06c-.112-.047-.15-.065-.227-.098l-.005-.002a5.408 5.408 0 01-1.413-.9c-.113-.099-.219-.207-.327-.311a5.668 5.668 0 01-.917-1.141l-.054-.086a.831.831 0 01-.091-.184c-.035-.133.055-.239.055-.239s.218-.24.32-.369a3.94 3.94 0 00.237-.335c.106-.171.14-.347.083-.483a74.932 74.932 0 00-.78-1.837c-.054-.12-.211-.207-.355-.224a3.995 3.995 0 00-.145-.014 3.044 3.044 0 00-.363.003v.001z"/></svg></svg>