<svg width="181" height="38" viewBox="0 0 181 38" fill="none" xmlns="http://www.w3.org/2000/svg">
<path fill-rule="evenodd" clip-rule="evenodd" d="M13.5776 0.328096L0.0309179 37.3281C-0.0885376 37.6544 0.152989 38 0.500437 38H113.523C113.677 38 113.82 37.9332 113.912 37.8098C114.912 36.477 120.767 28.402 120.767 22C120.767 15.6597 118.306 14.2418 117.842 14.0308C117.793 14.0086 117.74 14 117.686 14H92.4341C92.1019 14 91.8621 13.6821 91.9533 13.3627L93.6673 7.36266C93.7287 7.148 93.9249 7 94.1481 7H177.928C178.128 7 178.309 6.8808 178.388 6.69695L180.959 0.696948C181.1 0.367015 180.858 0 180.499 0H77.9779C77.8468 0 77.7248 0.0476348 77.6335 0.141619C76.6468 1.15683 70.7742 7.47353 70.7742 14C70.7742 20.2172 72.2968 21.6756 72.6848 21.9463C72.7413 21.9857 72.8095 22 72.8785 22H99.1072C99.4394 22 99.6792 22.3179 99.588 22.6373L97.8739 28.6373C97.8126 28.852 97.6164 29 97.3932 29H26.6222C26.2799 29 26.0388 28.6639 26.1485 28.3397L33.213 7.46472C33.2817 7.26166 33.4722 7.125 33.6866 7.125H42.0563C42.3977 7.125 42.6387 7.45959 42.5305 7.78341L36.9995 24.3416C36.8913 24.6654 37.1323 25 37.4737 25H58.4251C58.6304 25 58.8139 24.8769 58.8885 24.6856C59.6818 22.6528 64.0615 11.3166 64.7751 7C65.4463 2.93945 63.794 0.705832 63.3002 0.142972C63.2163 0.0473305 63.0951 0 62.9678 0H14.0471C13.8373 0 13.6498 0.131038 13.5776 0.328096ZM123.092 37.3257L131.644 14.3258C131.717 14.1299 131.904 14 132.112 14H175.037C175.386 14 175.628 14.3487 175.505 14.6755L172.88 21.6755C172.807 21.8707 172.621 22 172.412 22H151.13C150.911 22 150.718 22.1421 150.652 22.3509L145.872 37.6491C145.807 37.8579 145.614 38 145.395 38H123.561C123.212 38 122.971 37.6524 123.092 37.3257Z" fill="white"/>
</svg>
